<svg width="50" height="50" viewBox="0 0 50 50" fill="none" xmlns="http://www.w3.org/2000/svg">
<path fill-rule="evenodd" clip-rule="evenodd" d="M37.3939 3.93939H12.6061C7.81959 3.93939 3.93939 7.81959 3.93939 12.6061V37.3939C3.93939 42.1804 7.81959 46.0606 12.6061 46.0606H37.3939C42.1804 46.0606 46.0606 42.1804 46.0606 37.3939V12.6061C46.0606 7.81959 42.1804 3.93939 37.3939 3.93939ZM12.6061 0C5.64393 0 0 5.64393 0 12.6061V37.3939C0 44.3561 5.64393 50 12.6061 50H37.3939C44.3561 50 50 44.3561 50 37.3939V12.6061C50 5.64393 44.3561 0 37.3939 0H12.6061Z" fill="white"/>
<path fill-rule="evenodd" clip-rule="evenodd" d="M16.0478 20.3179L11.1621 15.4321V10.75H28.2621C31.5192 10.75 36.405 13.8036 36.405 20.3179C36.405 25.6381 33.3889 28.2504 30.5014 29.3717L36.2014 39.25C35.4221 39.25 34.5284 39.2487 33.674 39.2475C32.0734 39.2453 30.611 39.2432 30.2978 39.25C29.6254 38.2414 28.2744 35.9372 27.0598 33.8658C26.0681 32.1744 25.1674 30.6383 24.8014 30.0893C23.4757 29.9863 22.1472 29.6775 21.1371 29.0714V39.25H16.0478V20.3179ZM16.0477 20.1146V15.2289H26.2263V15.2329C28.9427 15.3397 31.112 17.5756 31.112 20.3182C31.112 23.1289 28.8335 25.4075 26.0227 25.4075C23.2802 25.4075 21.0443 22.831 20.9374 20.1146H16.0477Z" fill="white"/>
</svg>
